# Blender 4.1.1
# www.blender.org
mtllib Era_Splash_Blend_LINE_5F_V2.mtl
o LINE_5
v -8.577859 0.000001 -13.440683
v -8.577605 0.000001 -14.043382
v -10.405358 0.000001 -13.441549
v -10.405358 0.954801 -13.441549
v -10.405106 0.954801 -14.044149
v -10.405358 0.954801 -13.441549
v -8.577605 0.954801 -14.043382
v -10.405106 0.954801 -14.044149
v -8.577605 0.000001 -14.043382
v -8.577859 0.000001 -13.440683
v -8.577859 0.000001 -13.440683
v -8.577859 0.954801 -13.440683
v -10.405106 0.000001 -14.044149
v -10.405106 0.954801 -14.044149
v -8.577605 0.954801 -14.043382
v -8.577605 0.000001 -14.043382
v -10.405358 0.954801 -13.441549
v -8.577859 0.954801 -13.440683
v -8.577859 0.954801 -13.440683
v -8.577605 0.954801 -14.043382
v 1.444880 0.000000 -10.718115
v 1.444880 2.008883 -10.718115
v 2.385185 2.008384 -11.203920
v 1.188350 2.008384 -11.124023
v 1.188350 2.008384 -11.124023
v 1.236373 2.008384 -10.701202
v 2.433106 0.000000 -10.781000
v 2.385185 0.000000 -11.203920
v 1.236373 2.008384 -10.701202
v 1.236373 0.000000 -10.701203
v 1.236373 0.000000 -10.701203
v 2.433106 0.000000 -10.781000
v 1.188350 0.000000 -11.124023
v 1.236373 0.000000 -10.701203
v 1.444781 2.009084 -10.719215
v 1.398850 2.009084 -11.123734
v 2.223202 2.009084 -10.771189
v 2.177273 2.009084 -11.175708
v 1.916271 0.000000 -11.171917
v 1.916271 2.008883 -11.171917
v 1.397356 0.000000 -11.137335
v 1.397356 2.008883 -11.137335
v 1.963894 0.000000 -10.752798
v 1.963894 2.008883 -10.752798
v 1.188350 0.000000 -11.124023
v 1.188350 2.008384 -11.124023
v 2.385185 0.000000 -11.203920
v 2.385185 2.008384 -11.203920
v 2.433106 0.000000 -10.781000
v 2.433106 2.008384 -10.781000
v 1.236373 2.008384 -10.701202
v 2.433106 2.008384 -10.781000
v 2.433106 2.008384 -10.781000
v 2.385185 2.008384 -11.203920
v 2.385185 0.000000 -11.203920
v 1.188350 0.000000 -11.124023
v 1.704288 2.009084 -10.736506
v 1.658358 2.009084 -11.141026
v 1.963696 2.009084 -10.753798
v 1.917765 2.009084 -11.158417
v 2.175778 0.000000 -11.189208
v 2.175778 2.008883 -11.189208
v 1.656764 0.000000 -11.154627
v 1.656764 2.008883 -11.154627
v 2.223302 0.000000 -10.770088
v 2.223302 2.008883 -10.770088
v 1.704387 0.000000 -10.735407
v 1.704387 2.008883 -10.735407
v -3.410181 0.929510 -9.113379
v -3.478181 0.929510 -9.113407
v -4.093324 -0.000000 -9.113585
v -1.983449 -0.000000 -9.113317
v -2.063666 0.929510 -9.547550
v -3.409998 0.929510 -9.547579
v -3.616498 0.929510 -9.547665
v -3.688798 0.929510 -9.547695
v -3.477998 0.929510 -9.547607
v -3.549698 0.929510 -9.547637
v -3.753298 0.929510 -9.547722
v -3.823098 0.929510 -9.547752
v -1.983266 -0.000000 -9.547518
v -1.983266 0.221100 -9.547518
v -1.983449 0.929510 -9.113317
v -3.344981 0.929510 -9.113351
v -3.549881 0.929510 -9.113438
v -3.616681 0.929510 -9.113465
v -4.017524 0.929510 -9.113552
v -4.093324 0.929510 -9.113584
v -4.093324 0.929510 -9.113584
v -4.093324 0.221100 -9.113585
v -3.688981 0.929510 -9.113496
v -3.753481 0.929510 -9.113523
v -4.093324 0.221100 -9.113585
v -4.093324 -0.000000 -9.113585
v -4.093142 0.929510 -9.547783
v -4.093324 0.929510 -9.113584
v -1.983449 -0.000000 -9.113317
v -1.983266 -0.000000 -9.547518
v -4.093142 -0.000000 -9.547783
v -1.983266 -0.000000 -9.547518
v -1.983266 0.929510 -9.547518
v -2.063666 0.929510 -9.547550
v -3.549698 0.929510 -9.547637
v -3.616498 0.929510 -9.547665
v -4.093142 0.221100 -9.547783
v -4.093142 -0.000000 -9.547783
v -1.983266 0.221100 -9.547518
v -1.983266 0.929510 -9.547518
v -1.983266 0.929510 -9.547518
v -1.983449 0.929510 -9.113317
v -3.344981 0.929510 -9.113351
v -3.410181 0.929510 -9.113379
v -3.616681 0.929510 -9.113465
v -3.688981 0.929510 -9.113496
v -1.983449 0.221100 -9.113317
v -1.983449 0.929510 -9.113317
v -4.093142 -0.000000 -9.547783
v -4.093324 -0.000000 -9.113585
v -3.409998 0.929510 -9.547579
v -3.477998 0.929510 -9.547607
v -3.688798 0.929510 -9.547695
v -3.753298 0.929510 -9.547722
v -3.823098 0.929510 -9.547752
v -4.093142 0.929510 -9.547783
v -4.093142 0.929510 -9.547783
v -4.093142 0.221100 -9.547783
v -3.478181 0.929510 -9.113407
v -3.549881 0.929510 -9.113438
v -3.753481 0.929510 -9.113523
v -4.017524 0.929510 -9.113552
v -1.983449 -0.000000 -9.113317
v -1.983449 0.221100 -9.113317
l 1 2
l 3 4
l 5 6
l 7 8
l 9 10
l 11 12
l 13 14
l 15 16
l 17 18
l 19 20
l 21 22
l 23 24
l 25 26
l 27 28
l 29 30
l 31 32
l 33 34
l 35 36
l 37 38
l 39 40
l 41 42
l 43 44
l 45 46
l 47 48
l 49 50
l 51 52
l 53 54
l 55 56
l 57 58
l 59 60
l 61 62
l 63 64
l 65 66
l 67 68
l 69 70
l 71 72
l 73 74
l 75 76
l 77 78
l 79 80
l 81 82
l 83 84
l 85 86
l 87 88
l 89 90
l 91 92
l 93 94
l 95 96
l 97 98
l 99 100
l 101 102
l 103 104
l 105 106
l 107 108
l 109 110
l 111 112
l 113 114
l 115 116
l 117 118
l 119 120
l 121 122
l 123 124
l 125 126
l 127 128
l 129 130
l 131 132
