# Blender 4.1.1
# www.blender.org
mtllib Era_Splash_Blend_LINE_3F_V3.mtl
o LINE_3.001
v 3.123835 -0.000000 -4.878520
v 4.042869 -0.000000 -4.958534
v 3.087013 -0.000000 -5.301336
v 3.123835 -0.000000 -4.878520
v 3.283842 1.380100 -4.896553
v 3.248712 1.380100 -5.301167
v 3.682358 1.380100 -4.931285
v 3.647127 1.380100 -5.335800
v 3.087013 -0.000000 -5.301336
v 3.087013 1.379500 -5.301335
v 4.042869 -0.000000 -4.958534
v 4.042869 1.379500 -4.958534
v 3.123835 1.379500 -4.878520
v 4.042869 1.379500 -4.958534
v 2.910669 -0.000000 -3.767910
v 2.873846 -0.000000 -4.190725
v 4.638380 -0.000000 -4.945215
v 4.638558 -0.000000 -5.369715
v 1.954813 -0.000000 -4.110711
v 1.954813 1.235800 -4.110711
v 4.638380 0.919828 -4.945215
v 4.638558 0.919828 -5.369715
v 2.151742 -0.000000 -3.704828
v 2.151742 1.236200 -3.704828
v 2.873846 1.235800 -4.190725
v 1.954813 1.235800 -4.110711
v 1.954813 1.235800 -4.110711
v 1.991635 1.235800 -3.687895
v 0.411571 1.506800 -4.965759
v 0.411742 1.506800 -5.371859
v 2.351050 -0.000000 -3.722244
v 2.351050 1.236200 -3.722244
v 0.709172 1.506800 -4.965634
v 0.709342 1.506800 -5.371734
v 4.042869 1.379500 -4.958534
v 4.006046 1.379500 -5.381350
v 0.560547 -0.000000 -5.385396
v 0.560547 1.506600 -5.385396
v 1.991635 -0.000000 -3.687895
v 2.910669 -0.000000 -3.767910
v 1.954813 -0.000000 -4.110711
v 1.991635 -0.000000 -3.687895
v 2.350950 1.236400 -3.723244
v 2.315720 1.236400 -4.127759
v 0.411571 -0.000000 -4.964659
v 0.411571 1.506600 -4.964659
v 2.749464 1.236400 -3.757977
v 2.714235 1.236400 -4.162492
v 0.829448 -0.000000 -5.385884
v 0.829448 1.506100 -5.385884
v 2.513832 -0.000000 -4.158676
v 2.513832 1.236200 -4.158676
v 0.829270 -0.000000 -4.961484
v 0.829270 1.506100 -4.961483
v 2.115319 -0.000000 -4.124043
v 2.115319 1.236200 -4.124043
v 0.142970 1.506100 -4.961772
v 0.829270 1.506100 -4.961483
v 2.550256 -0.000000 -3.739561
v 2.550256 1.236200 -3.739561
v 4.638558 -0.000000 -5.369715
v 4.638558 0.919828 -5.369715
v 3.245280 -0.000000 -4.945800
v 4.638380 -0.000000 -4.945215
v 3.245458 -0.000000 -5.370300
v 3.245280 -0.000000 -4.945800
v 4.638558 0.919828 -5.369715
v 3.245458 0.919828 -5.370300
v 3.245458 0.919828 -5.370300
v 3.245280 0.919828 -4.945800
v 2.910669 1.235800 -3.767910
v 2.873846 1.235800 -4.190725
v 0.829270 1.506100 -4.961483
v 0.829448 1.506100 -5.385884
v 4.006046 -0.000000 -5.381350
v 3.087013 -0.000000 -5.301336
v 3.483150 1.380100 -4.913969
v 3.447920 1.380100 -5.318484
v 3.881665 1.380100 -4.948602
v 3.846434 1.380100 -5.353217
v 4.006046 -0.000000 -5.381350
v 4.006046 1.379500 -5.381350
v 4.006046 1.379500 -5.381350
v 3.087013 1.379500 -5.301335
v 3.087013 1.379500 -5.301335
v 3.123835 1.379500 -4.878520
v 0.142970 1.506100 -4.961772
v 0.142970 -0.000000 -4.961772
v 2.873846 -0.000000 -4.190725
v 2.873846 1.235800 -4.190725
v 3.245280 0.919828 -4.945800
v 3.245280 -0.000000 -4.945800
v 0.262948 -0.000000 -5.385521
v 0.262948 1.506600 -5.385521
v 4.042869 -0.000000 -4.958534
v 4.006046 -0.000000 -5.381350
v 0.262771 1.506800 -4.965821
v 0.262942 1.506800 -5.371922
v 0.560371 1.506800 -4.965696
v 0.560542 1.506800 -5.371797
v 2.910669 -0.000000 -3.767910
v 2.910669 1.235800 -3.767910
v 0.709348 -0.000000 -5.385334
v 0.709348 1.506600 -5.385334
v 3.123835 1.379500 -4.878520
v 3.123835 -0.000000 -4.878520
v 0.411747 -0.000000 -5.385459
v 0.411747 1.506600 -5.385459
v 2.873846 -0.000000 -4.190725
v 1.954813 -0.000000 -4.110711
v 0.709171 -0.000000 -4.964534
v 0.709171 1.506600 -4.964534
v 2.151742 1.236400 -3.705928
v 2.116513 1.236400 -4.110443
v 0.560371 -0.000000 -4.964597
v 0.560371 1.506600 -4.964597
v 2.550157 1.236400 -3.740561
v 2.514927 1.236400 -4.145176
v 0.143148 -0.000000 -5.386172
v 0.143148 1.506100 -5.386172
v 2.713040 -0.000000 -4.176093
v 2.713040 1.236200 -4.176092
v 0.262771 -0.000000 -4.964722
v 0.262771 1.506600 -4.964722
v 2.314526 -0.000000 -4.141360
v 2.314526 1.236200 -4.141360
v 0.829448 1.506100 -5.385884
v 0.143148 1.506100 -5.386172
v 2.749564 -0.000000 -3.756877
v 2.749564 1.236200 -3.756877
v 0.143148 1.506100 -5.386172
v 0.142970 1.506100 -4.961772
v 3.245458 -0.000000 -5.370300
v 3.245458 0.919828 -5.370300
v 4.638380 -0.000000 -4.945215
v 4.638380 0.919828 -4.945215
v 4.638558 -0.000000 -5.369715
v 3.245458 -0.000000 -5.370300
v 3.245280 0.919828 -4.945800
v 4.638380 0.919828 -4.945215
v 1.991635 1.235800 -3.687895
v 1.991635 -0.000000 -3.687895
v 1.991635 1.235800 -3.687895
v 2.910669 1.235800 -3.767910
v -3.296387 1.609400 -4.560463
v -3.260818 1.609400 -4.965049
v -4.007493 1.236400 -3.118362
v -4.042723 1.236400 -3.522877
v -2.907225 -0.000000 -4.947600
v -2.907225 1.609200 -4.947600
v -3.844710 -0.000000 -3.553794
v -3.844710 1.236200 -3.553794
v -2.588836 -0.000000 -4.920267
v -2.588836 1.608800 -4.920267
v -4.243125 -0.000000 -3.519161
v -4.243125 1.236200 -3.519161
v -2.588836 1.608800 -4.920267
v -3.401406 1.608800 -4.991708
v -3.401406 1.608800 -4.991708
v -3.438584 1.608800 -4.568823
v -3.120194 1.609400 -4.544990
v -3.084624 1.609400 -4.949475
v -2.944101 -0.000000 -4.528416
v -2.944101 1.609200 -4.528416
v -3.808186 -0.000000 -3.134679
v -3.808186 1.236200 -3.134679
v -2.944000 1.609400 -4.529515
v -2.908430 1.609400 -4.934000
v -3.683904 -0.000000 -3.568426
v -4.602838 -0.000000 -3.488412
v -4.206800 1.236400 -3.101046
v -4.242030 1.236400 -3.505560
v -3.808286 1.236400 -3.135679
v -3.843516 1.236400 -3.540293
v -4.043918 -0.000000 -3.536478
v -4.043918 1.236200 -3.536477
v -4.442432 -0.000000 -3.501745
v -4.442432 1.236200 -3.501745
v -2.767807 1.609400 -4.514041
v -2.732237 1.609400 -4.918527
v -4.206701 -0.000000 -3.099946
v -4.206701 1.236200 -3.099946
v -3.683904 -0.000000 -3.568426
v -3.683904 1.235800 -3.568426
v -4.007393 -0.000000 -3.117362
v -4.007393 1.236200 -3.117362
v -3.647081 -0.000000 -3.145611
v -3.647081 1.235800 -3.145611
v -4.566015 1.235800 -3.065597
v -3.647081 1.235800 -3.145611
v -4.602838 -0.000000 -3.488412
v -4.602838 1.235800 -3.488412
v -4.405908 -0.000000 -3.082630
v -4.405908 1.236200 -3.082629
v -2.767907 -0.000000 -4.512942
v -2.767907 1.609200 -4.512941
v -3.296488 -0.000000 -4.559464
v -3.296488 1.609200 -4.559464
v -2.626014 1.608800 -4.497382
v -2.588836 1.608800 -4.920267
v -3.683904 1.235800 -3.568426
v -4.602838 1.235800 -3.488412
v -3.647081 -0.000000 -3.145611
v -3.683904 -0.000000 -3.568426
v -4.602838 1.235800 -3.488412
v -4.566015 1.235800 -3.065597
v -3.647081 1.235800 -3.145611
v -3.683904 1.235800 -3.568426
v -2.731131 -0.000000 -4.932127
v -2.731131 1.609200 -4.932126
v -3.401406 -0.000000 -4.991708
v -3.401406 1.608800 -4.991708
v -3.259612 -0.000000 -4.978548
v -3.259612 1.609200 -4.978548
v -2.626014 -0.000000 -4.497382
v -2.626014 1.608800 -4.497382
v -3.438584 1.608800 -4.568823
v -2.626014 1.608800 -4.497382
v -3.083418 -0.000000 -4.963074
v -3.083418 1.609200 -4.963074
v -4.566015 -0.000000 -3.065597
v -3.647081 -0.000000 -3.145611
v -3.438584 1.608800 -4.568823
v -3.438584 -0.000000 -4.568823
v -4.602838 -0.000000 -3.488412
v -4.566015 -0.000000 -3.065597
v -4.566015 1.235800 -3.065597
v -4.566015 -0.000000 -3.065597
v -3.120294 -0.000000 -4.543990
v -3.120294 1.609200 -4.543990
v -4.406008 1.236400 -3.083629
v -4.441237 1.236400 -3.488244
v -4.927185 0.000000 -6.094074
v -3.600634 0.000000 -5.977417
v -4.890007 0.000000 -6.516858
v -4.927185 0.000000 -6.094074
v -4.695292 1.095615 -6.077776
v -4.659722 1.095615 -6.482261
v -4.120113 1.095615 -6.027235
v -4.084543 1.095615 -6.431720
v -3.795748 0.000000 -6.419999
v -3.795748 1.095515 -6.419998
v -4.083338 0.000000 -6.445319
v -4.083338 1.095515 -6.445319
v -4.658516 0.000000 -6.495861
v -4.658516 1.095515 -6.495861
v -4.120214 0.000000 -6.026134
v -4.120214 1.095515 -6.026134
v -4.890007 0.000000 -6.516858
v -4.890007 1.095015 -6.516858
v -4.695392 0.000000 -6.076676
v -4.695392 1.095515 -6.076676
v -4.927185 1.095015 -6.094073
v -3.600634 1.095015 -5.977417
v -6.714146 -0.000000 -5.374899
v -6.714146 0.735700 -5.374899
v -5.321224 -0.000000 -4.949914
v -5.321224 0.735700 -4.949914
v -6.714324 0.735700 -4.950499
v -5.321224 0.735700 -4.949914
v -3.600634 0.000000 -5.977417
v -3.563456 0.000000 -6.400201
v -4.927185 1.095015 -6.094073
v -4.927185 0.000000 -6.094074
v -6.714324 0.735700 -4.950499
v -6.714324 -0.000000 -4.950499
v -3.563456 0.000000 -6.400201
v -4.890007 0.000000 -6.516858
v -4.407702 1.095615 -6.052455
v -4.372132 1.095615 -6.457041
v -3.832423 1.095615 -6.001914
v -3.796854 1.095615 -6.406399
v -4.370927 0.000000 -6.470540
v -4.370927 1.095515 -6.470540
v -3.832524 0.000000 -6.000914
v -3.832524 1.095515 -6.000914
v -4.407803 0.000000 -6.051455
v -4.407803 1.095515 -6.051455
v -3.563456 0.000000 -6.400201
v -3.563456 1.095015 -6.400201
v -3.600634 0.000000 -5.977417
v -3.600634 1.095015 -5.977417
v -3.563456 1.095015 -6.400201
v -4.890007 1.095015 -6.516858
v -4.890007 1.095015 -6.516858
v -4.927185 1.095015 -6.094073
v -5.321046 -0.000000 -5.374314
v -5.321046 0.735700 -5.374314
v -5.321046 0.735700 -5.374314
v -6.714146 0.735700 -5.374899
v -6.714146 0.735700 -5.374899
v -6.714324 0.735700 -4.950499
v -3.600634 1.095015 -5.977417
v -3.563456 1.095015 -6.400201
v -5.321224 0.735700 -4.949914
v -5.321046 0.735700 -5.374314
v 2.051150 0.559174 -2.914238
v 1.983150 0.559174 -2.914267
v 1.368007 -0.000000 -2.914444
v 2.381464 -0.000000 -2.914177
v 2.301246 0.559174 -3.348411
v 2.051332 0.559174 -3.348438
v 1.844833 0.559174 -3.348525
v 1.772532 0.559174 -3.348555
v 1.983332 0.559174 -3.348467
v 1.911633 0.559174 -3.348497
v 1.708032 0.559174 -3.348583
v 1.638232 0.559174 -3.348612
v 2.381646 -0.000000 -3.348377
v 2.381646 0.221100 -3.348377
v 2.381464 0.559174 -2.914177
v 2.116350 0.559174 -2.914211
v 1.911450 0.559174 -2.914297
v 1.844650 0.559174 -2.914325
v 1.443807 0.559174 -2.914412
v 1.368007 0.559174 -2.914444
v 1.368007 0.559174 -2.914444
v 1.368007 0.221100 -2.914444
v 1.772350 0.559174 -2.914356
v 1.707850 0.559174 -2.914383
v 1.368007 0.221100 -2.914444
v 1.368007 -0.000000 -2.914444
v 1.368190 0.559174 -3.348644
v 1.368007 0.559174 -2.914444
v 2.381464 -0.000000 -2.914177
v 2.381646 -0.000000 -3.348377
v 1.368190 -0.000000 -3.348644
v 2.381646 -0.000000 -3.348377
v 2.381646 0.559174 -3.348377
v 2.301246 0.559174 -3.348411
v 1.911633 0.559174 -3.348497
v 1.844833 0.559174 -3.348525
v 1.368190 0.221100 -3.348644
v 1.368190 -0.000000 -3.348644
v 2.381646 0.221100 -3.348377
v 2.381646 0.559174 -3.348377
v 2.381646 0.559174 -3.348377
v 2.381464 0.559174 -2.914177
v 2.116350 0.559174 -2.914211
v 2.051150 0.559174 -2.914238
v 1.844650 0.559174 -2.914325
v 1.772350 0.559174 -2.914356
v 2.381464 0.221100 -2.914177
v 2.381464 0.559174 -2.914177
v 1.368190 -0.000000 -3.348644
v 1.368007 -0.000000 -2.914444
v 2.051332 0.559174 -3.348438
v 1.983332 0.559174 -3.348467
v 1.772532 0.559174 -3.348555
v 1.708032 0.559174 -3.348583
v 1.638232 0.559174 -3.348612
v 1.368190 0.559174 -3.348644
v 1.368190 0.559174 -3.348644
v 1.368190 0.221100 -3.348644
v 1.983150 0.559174 -2.914267
v 1.911450 0.559174 -2.914297
v 1.707850 0.559174 -2.914383
v 1.443807 0.559174 -2.914412
v 2.381464 -0.000000 -2.914177
v 2.381464 0.221100 -2.914177
v 3.386886 0.559174 -2.914239
v 3.318887 0.559174 -2.914267
v 2.703744 -0.000000 -2.914444
v 3.717201 -0.000000 -2.914178
v 3.636983 0.559174 -3.348411
v 3.387069 0.559174 -3.348439
v 3.180569 0.559174 -3.348525
v 3.108268 0.559174 -3.348556
v 3.319069 0.559174 -3.348467
v 3.247369 0.559174 -3.348497
v 3.043769 0.559174 -3.348583
v 2.973969 0.559174 -3.348612
v 3.717383 -0.000000 -3.348377
v 3.717383 0.221100 -3.348377
v 3.717201 0.559174 -2.914178
v 3.452087 0.559174 -2.914212
v 3.247186 0.559174 -2.914298
v 3.180387 0.559174 -2.914325
v 2.779544 0.559174 -2.914412
v 2.703744 0.559174 -2.914444
v 2.703744 0.559174 -2.914444
v 2.703744 0.221100 -2.914444
v 3.108086 0.559174 -2.914356
v 3.043586 0.559174 -2.914383
v 2.703744 0.221100 -2.914444
v 2.703744 -0.000000 -2.914444
v 2.703926 0.559174 -3.348644
v 2.703744 0.559174 -2.914444
v 3.717201 -0.000000 -2.914178
v 3.717383 -0.000000 -3.348377
v 2.703926 -0.000000 -3.348644
v 3.717383 -0.000000 -3.348377
v 3.717383 0.559174 -3.348377
v 3.636983 0.559174 -3.348411
v 3.247369 0.559174 -3.348497
v 3.180569 0.559174 -3.348525
v 2.703926 0.221100 -3.348644
v 2.703926 -0.000000 -3.348644
v 3.717383 0.221100 -3.348377
v 3.717383 0.559174 -3.348377
v 3.717383 0.559174 -3.348377
v 3.717201 0.559174 -2.914178
v 3.452087 0.559174 -2.914212
v 3.386886 0.559174 -2.914239
v 3.180387 0.559174 -2.914325
v 3.108086 0.559174 -2.914356
v 3.717201 0.221100 -2.914178
v 3.717201 0.559174 -2.914178
v 2.703926 -0.000000 -3.348644
v 2.703744 -0.000000 -2.914444
v 3.387069 0.559174 -3.348439
v 3.319069 0.559174 -3.348467
v 3.108268 0.559174 -3.348556
v 3.043769 0.559174 -3.348583
v 2.973969 0.559174 -3.348612
v 2.703926 0.559174 -3.348644
v 2.703926 0.559174 -3.348644
v 2.703926 0.221100 -3.348644
v 3.318887 0.559174 -2.914267
v 3.247186 0.559174 -2.914298
v 3.043586 0.559174 -2.914383
v 2.779544 0.559174 -2.914412
v 3.717201 -0.000000 -2.914178
v 3.717201 0.221100 -2.914178
l 1 2
l 3 4
l 5 6
l 7 8
l 9 10
l 11 12
l 13 14
l 15 16
l 17 18
l 19 20
l 21 22
l 23 24
l 25 26
l 27 28
l 29 30
l 31 32
l 33 34
l 35 36
l 37 38
l 39 40
l 41 42
l 43 44
l 45 46
l 47 48
l 49 50
l 51 52
l 53 54
l 55 56
l 57 58
l 59 60
l 61 62
l 63 64
l 65 66
l 67 68
l 69 70
l 71 72
l 73 74
l 75 76
l 77 78
l 79 80
l 81 82
l 83 84
l 85 86
l 87 88
l 89 90
l 91 92
l 93 94
l 95 96
l 97 98
l 99 100
l 101 102
l 103 104
l 105 106
l 107 108
l 109 110
l 111 112
l 113 114
l 115 116
l 117 118
l 119 120
l 121 122
l 123 124
l 125 126
l 127 128
l 129 130
l 131 132
l 133 134
l 135 136
l 137 138
l 139 140
l 141 142
l 143 144
l 145 146
l 147 148
l 149 150
l 151 152
l 153 154
l 155 156
l 157 158
l 159 160
l 161 162
l 163 164
l 165 166
l 167 168
l 169 170
l 171 172
l 173 174
l 175 176
l 177 178
l 179 180
l 181 182
l 183 184
l 185 186
l 187 188
l 189 190
l 191 192
l 193 194
l 195 196
l 197 198
l 199 200
l 201 202
l 203 204
l 205 206
l 207 208
l 209 210
l 211 212
l 213 214
l 215 216
l 217 218
l 219 220
l 221 222
l 223 224
l 225 226
l 227 228
l 229 230
l 231 232
l 233 234
l 235 236
l 237 238
l 239 240
l 241 242
l 243 244
l 245 246
l 247 248
l 249 250
l 251 252
l 253 254
l 255 256
l 257 258
l 259 260
l 261 262
l 263 264
l 265 266
l 267 268
l 269 270
l 271 272
l 273 274
l 275 276
l 277 278
l 279 280
l 281 282
l 283 284
l 285 286
l 287 288
l 289 290
l 291 292
l 293 294
l 295 296
l 297 298
l 299 300
l 301 302
l 303 304
l 305 306
l 307 308
l 309 310
l 311 312
l 313 314
l 315 316
l 317 318
l 319 320
l 321 322
l 323 324
l 325 326
l 327 328
l 329 330
l 331 332
l 333 334
l 335 336
l 337 338
l 339 340
l 341 342
l 343 344
l 345 346
l 347 348
l 349 350
l 351 352
l 353 354
l 355 356
l 357 358
l 359 360
l 361 362
l 363 364
l 365 366
l 367 368
l 369 370
l 371 372
l 373 374
l 375 376
l 377 378
l 379 380
l 381 382
l 383 384
l 385 386
l 387 388
l 389 390
l 391 392
l 393 394
l 395 396
l 397 398
l 399 400
l 401 402
l 403 404
l 405 406
l 407 408
l 409 410
l 411 412
l 413 414
l 415 416
l 417 418
l 419 420
l 421 422
l 423 424
