# Blender 4.1.1
# www.blender.org
mtllib Era_Splash_Blend_LINE_4F.mtl
o LINE_4
v 2.498389 0.000000 -6.438383
v 2.498389 1.565300 -6.438383
v 3.438694 1.564800 -6.924188
v 2.241861 1.564800 -6.844291
v 2.241861 1.564800 -6.844291
v 2.289883 1.564800 -6.421470
v 0.406053 1.506100 -7.336048
v 0.406053 -0.000000 -7.336048
v 1.092353 1.506100 -7.335760
v 1.092531 1.506100 -7.760159
v 3.486616 0.000000 -6.501268
v 3.438694 0.000000 -6.924188
v 2.289883 1.564800 -6.421470
v 2.289883 0.000000 -6.421471
v 0.674654 1.506800 -7.340035
v 0.674825 1.506800 -7.746135
v 0.972254 1.506800 -7.339910
v 0.972425 1.506800 -7.746010
v 0.823630 -0.000000 -7.759672
v 0.823630 1.506600 -7.759672
v 0.674830 -0.000000 -7.759735
v 0.674830 1.506600 -7.759735
v 0.972254 -0.000000 -7.338810
v 0.972254 1.506600 -7.338810
v 0.674654 -0.000000 -7.338935
v 0.674654 1.506600 -7.338935
v 1.092531 -0.000000 -7.760159
v 1.092531 1.506100 -7.760159
v 1.092353 -0.000000 -7.335760
v 1.092353 1.506100 -7.335760
v 0.406053 1.506100 -7.336048
v 1.092353 1.506100 -7.335760
v 0.526031 -0.000000 -7.759797
v 0.526031 1.506600 -7.759797
v 2.289883 0.000000 -6.421471
v 3.486616 0.000000 -6.501268
v 2.241861 0.000000 -6.844291
v 2.289883 0.000000 -6.421471
v 2.498291 1.565500 -6.439483
v 2.452360 1.565500 -6.844002
v 3.276712 1.565500 -6.491456
v 3.230782 1.565500 -6.895975
v 2.969781 0.000000 -6.892185
v 2.969781 1.565300 -6.892185
v 2.450866 0.000000 -6.857603
v 2.450866 1.565300 -6.857603
v 3.017404 0.000000 -6.473065
v 3.017404 1.565300 -6.473065
v 2.241861 0.000000 -6.844291
v 2.241861 1.564800 -6.844291
v 3.438694 0.000000 -6.924188
v 3.438694 1.564800 -6.924188
v 3.486616 0.000000 -6.501268
v 3.486616 1.564800 -6.501267
v 2.289883 1.564800 -6.421470
v 3.486616 1.564800 -6.501267
v 3.486616 1.564800 -6.501267
v 3.438694 1.564800 -6.924188
v 0.525854 1.506800 -7.340097
v 0.526025 1.506800 -7.746198
v 0.823454 1.506800 -7.339972
v 0.823625 1.506800 -7.746073
v 0.972430 -0.000000 -7.759610
v 0.972430 1.506600 -7.759610
v 0.823454 -0.000000 -7.338872
v 0.823454 1.506600 -7.338872
v 0.406231 -0.000000 -7.760448
v 0.406231 1.506100 -7.760448
v 0.525854 -0.000000 -7.338997
v 0.525854 1.506600 -7.338997
v 1.092531 1.506100 -7.760159
v 0.406231 1.506100 -7.760448
v 0.406231 1.506100 -7.760448
v 0.406053 1.506100 -7.336048
v 3.438694 0.000000 -6.924188
v 2.241861 0.000000 -6.844291
v 2.757797 1.565500 -6.456774
v 2.711868 1.565500 -6.861293
v 3.017205 1.565500 -6.474065
v 2.971275 1.565500 -6.878684
v 3.229288 0.000000 -6.909476
v 3.229288 1.565300 -6.909476
v 2.710274 0.000000 -6.874894
v 2.710274 1.565300 -6.874894
v 3.276812 0.000000 -6.490356
v 3.276812 1.565300 -6.490356
v 2.757897 0.000000 -6.455674
v 2.757897 1.565300 -6.455674
v -6.360847 1.995800 -7.752551
v -6.325277 1.995800 -8.157136
v -6.008460 1.995800 -7.721602
v -5.972890 1.995800 -8.126188
v -5.832267 1.995800 -7.706129
v -5.796697 1.995800 -8.110614
v -5.971684 0.000000 -8.139688
v -5.971684 1.995600 -8.139688
v -6.324072 0.000000 -8.170635
v -6.324072 1.995600 -8.170635
v -6.008560 0.000000 -7.720603
v -6.008560 1.995600 -7.720603
v -6.465866 0.000000 -8.183795
v -6.465866 1.995200 -8.183795
v -6.503043 1.995200 -7.761010
v -6.503043 0.000000 -7.761011
v -6.360948 0.000000 -7.751551
v -6.360948 1.995600 -7.751551
v -5.653196 1.995200 -8.112353
v -6.465866 1.995200 -8.183795
v -6.465866 1.995200 -8.183795
v -6.503043 1.995200 -7.761010
v -6.184653 1.995800 -7.737077
v -6.149083 1.995800 -8.141662
v -5.795490 0.000000 -8.124213
v -5.795490 1.995600 -8.124213
v -6.147878 0.000000 -8.155162
v -6.147878 1.995600 -8.155161
v -5.832367 0.000000 -7.705029
v -5.832367 1.995600 -7.705029
v -6.184753 0.000000 -7.736077
v -6.184753 1.995600 -7.736077
v -5.653196 0.000000 -8.112353
v -5.653196 1.995200 -8.112353
v -5.690373 1.995200 -7.689569
v -5.653196 1.995200 -8.112353
v -5.690373 0.000000 -7.689569
v -5.690373 1.995200 -7.689569
v -6.503043 1.995200 -7.761010
v -5.690373 1.995200 -7.689569
l 1 2
l 3 4
l 5 6
l 7 8
l 9 10
l 11 12
l 13 14
l 15 16
l 17 18
l 19 20
l 21 22
l 23 24
l 25 26
l 27 28
l 29 30
l 31 32
l 33 34
l 35 36
l 37 38
l 39 40
l 41 42
l 43 44
l 45 46
l 47 48
l 49 50
l 51 52
l 53 54
l 55 56
l 57 58
l 59 60
l 61 62
l 63 64
l 65 66
l 67 68
l 69 70
l 71 72
l 73 74
l 75 76
l 77 78
l 79 80
l 81 82
l 83 84
l 85 86
l 87 88
l 89 90
l 91 92
l 93 94
l 95 96
l 97 98
l 99 100
l 101 102
l 103 104
l 105 106
l 107 108
l 109 110
l 111 112
l 113 114
l 115 116
l 117 118
l 119 120
l 121 122
l 123 124
l 125 126
l 127 128
