<svg xmlns="http://www.w3.org/2000/svg" viewBox="0 0 720 500" role="img" aria-label="Option A, aerial conceptual massing"><rect width="720" height="500" fill="#f1ede5"/><polygon points="305.0,124.6 665.0,297.4 415.0,417.4 55.0,244.6" fill="#d8d9cc" stroke="#909487" stroke-width="0.8"/><polygon points="130.0,236.4 430.0,380.4 400.0,394.8 100.0,250.8" fill="#c2bcae" stroke="#8e877a" stroke-width="0.8"/><polygon points="315.0,180.9 545.0,291.3 405.0,358.5 175.0,248.1" fill="#cdc5b5" stroke="#98735b" stroke-width="1.4"/><polygon points="270.0,187.4 330.0,216.2 280.0,240.2 220.0,211.4" fill="#e5ddd0" stroke="#8e877a" stroke-width="0.8"/><polygon points="270.0,177.0 330.0,205.8 280.0,229.8 220.0,201.0" fill="#e5ddd0" stroke="#8e877a" stroke-width="0.8"/><polygon points="270.0,166.6 330.0,195.4 280.0,219.4 220.0,190.6" fill="#e5ddd0" stroke="#8e877a" stroke-width="0.8"/><polygon points="270.0,156.2 330.0,185.0 280.0,209.0 220.0,180.2" fill="#e5ddd0" stroke="#8e877a" stroke-width="0.8"/><polygon points="270.0,145.8 330.0,174.6 280.0,198.6 220.0,169.8" fill="#e5ddd0" stroke="#8e877a" stroke-width="0.8"/><polygon points="270.0,135.4 330.0,164.2 280.0,188.2 220.0,159.4" fill="#e5ddd0" stroke="#8e877a" stroke-width="0.8"/><polygon points="270.0,125.0 330.0,153.8 280.0,177.8 220.0,149.0" fill="#e5ddd0" stroke="#8e877a" stroke-width="0.8"/><polygon points="270.0,114.6 330.0,143.4 280.0,167.4 220.0,138.6" fill="#e5ddd0" stroke="#8e877a" stroke-width="0.8"/><polygon points="270.0,104.2 330.0,133.0 280.0,157.0 220.0,128.2" fill="#e5ddd0" stroke="#8e877a" stroke-width="0.8"/><polygon points="270.0,93.8 330.0,122.6 280.0,146.6 220.0,117.8" fill="#e5ddd0" stroke="#8e877a" stroke-width="0.8"/><polygon points="270.0,83.4 330.0,112.2 280.0,136.2 220.0,107.4" fill="#e5ddd0" stroke="#8e877a" stroke-width="0.8"/><polygon points="270.0,71.4 330.0,100.2 280.0,124.2 220.0,95.4" fill="#e5ddd0" stroke="#8e877a" stroke-width="0.8"/><polygon points="270.0,67.0 330.0,95.8 280.0,119.8 220.0,91.0" fill="#e5ddd0" stroke="#8e877a" stroke-width="0.8"/><polygon points="220.0,226.8 280.0,255.6 280.0,240.2 220.0,211.4" fill="#bcad96" stroke="#8e877a" stroke-width="0.8"/><polygon points="220.0,211.4 280.0,240.2 280.0,229.8 220.0,201.0" fill="#bcad96" stroke="#8e877a" stroke-width="0.8"/><polygon points="220.0,201.0 280.0,229.8 280.0,219.4 220.0,190.6" fill="#bcad96" stroke="#8e877a" stroke-width="0.8"/><polygon points="220.0,190.6 280.0,219.4 280.0,209.0 220.0,180.2" fill="#bcad96" stroke="#8e877a" stroke-width="0.8"/><polygon points="220.0,180.2 280.0,209.0 280.0,198.6 220.0,169.8" fill="#bcad96" stroke="#8e877a" stroke-width="0.8"/><polygon points="220.0,169.8 280.0,198.6 280.0,188.2 220.0,159.4" fill="#bcad96" stroke="#8e877a" stroke-width="0.8"/><polygon points="330.0,231.6 280.0,255.6 280.0,240.2 330.0,216.2" fill="#978e7b" stroke="#8e877a" stroke-width="0.8"/><polygon points="220.0,159.4 280.0,188.2 280.0,177.8 220.0,149.0" fill="#bcad96" stroke="#8e877a" stroke-width="0.8"/><polygon points="220.0,149.0 280.0,177.8 280.0,167.4 220.0,138.6" fill="#bcad96" stroke="#8e877a" stroke-width="0.8"/><polygon points="330.0,216.2 280.0,240.2 280.0,229.8 330.0,205.8" fill="#978e7b" stroke="#8e877a" stroke-width="0.8"/><polygon points="220.0,138.6 280.0,167.4 280.0,157.0 220.0,128.2" fill="#bcad96" stroke="#8e877a" stroke-width="0.8"/><polygon points="330.0,205.8 280.0,229.8 280.0,219.4 330.0,195.4" fill="#978e7b" stroke="#8e877a" stroke-width="0.8"/><polygon points="220.0,128.2 280.0,157.0 280.0,146.6 220.0,117.8" fill="#bcad96" stroke="#8e877a" stroke-width="0.8"/><polygon points="330.0,195.4 280.0,219.4 280.0,209.0 330.0,185.0" fill="#978e7b" stroke="#8e877a" stroke-width="0.8"/><polygon points="220.0,117.8 280.0,146.6 280.0,136.2 220.0,107.4" fill="#bcad96" stroke="#8e877a" stroke-width="0.8"/><polygon points="330.0,185.0 280.0,209.0 280.0,198.6 330.0,174.6" fill="#978e7b" stroke="#8e877a" stroke-width="0.8"/><polygon points="220.0,107.4 280.0,136.2 280.0,124.2 220.0,95.4" fill="#bcad96" stroke="#8e877a" stroke-width="0.8"/><polygon points="330.0,174.6 280.0,198.6 280.0,188.2 330.0,164.2" fill="#978e7b" stroke="#8e877a" stroke-width="0.8"/><polygon points="220.0,95.4 280.0,124.2 280.0,119.8 220.0,91.0" fill="#bcad96" stroke="#8e877a" stroke-width="0.8"/><polygon points="330.0,164.2 280.0,188.2 280.0,177.8 330.0,153.8" fill="#978e7b" stroke="#8e877a" stroke-width="0.8"/><polygon points="330.0,153.8 280.0,177.8 280.0,167.4 330.0,143.4" fill="#978e7b" stroke="#8e877a" stroke-width="0.8"/><polygon points="330.0,143.4 280.0,167.4 280.0,157.0 330.0,133.0" fill="#978e7b" stroke="#8e877a" stroke-width="0.8"/><polygon points="330.0,133.0 280.0,157.0 280.0,146.6 330.0,122.6" fill="#978e7b" stroke="#8e877a" stroke-width="0.8"/><polygon points="315.0,165.8 545.0,276.2 500.0,297.8 270.0,187.4" fill="#e5ddd0" stroke="#8e877a" stroke-width="0.8"/><polygon points="330.0,122.6 280.0,146.6 280.0,136.2 330.0,112.2" fill="#978e7b" stroke="#8e877a" stroke-width="0.8"/><polygon points="315.0,155.4 545.0,265.8 500.0,287.4 270.0,177.0" fill="#e5ddd0" stroke="#8e877a" stroke-width="0.8"/><polygon points="330.0,112.2 280.0,136.2 280.0,124.2 330.0,100.2" fill="#978e7b" stroke="#8e877a" stroke-width="0.8"/><polygon points="315.0,145.0 545.0,255.4 500.0,277.0 270.0,166.6" fill="#e5ddd0" stroke="#8e877a" stroke-width="0.8"/><polygon points="330.0,100.2 280.0,124.2 280.0,119.8 330.0,95.8" fill="#978e7b" stroke="#8e877a" stroke-width="0.8"/><polygon points="315.0,134.6 545.0,245.0 500.0,266.6 270.0,156.2" fill="#e5ddd0" stroke="#8e877a" stroke-width="0.8"/><polygon points="315.0,124.2 545.0,234.6 500.0,256.2 270.0,145.8" fill="#e5ddd0" stroke="#8e877a" stroke-width="0.8"/><polygon points="315.0,113.8 545.0,224.2 500.0,245.8 270.0,135.4" fill="#e5ddd0" stroke="#8e877a" stroke-width="0.8"/><polygon points="315.0,103.4 545.0,213.8 500.0,235.4 270.0,125.0" fill="#e5ddd0" stroke="#8e877a" stroke-width="0.8"/><polygon points="315.0,93.0 545.0,203.4 500.0,225.0 270.0,114.6" fill="#e5ddd0" stroke="#8e877a" stroke-width="0.8"/><polygon points="315.0,82.6 545.0,193.0 500.0,214.6 270.0,104.2" fill="#e5ddd0" stroke="#8e877a" stroke-width="0.8"/><polygon points="315.0,72.2 545.0,182.6 500.0,204.2 270.0,93.8" fill="#e5ddd0" stroke="#8e877a" stroke-width="0.8"/><polygon points="315.0,61.8 545.0,172.2 500.0,193.8 270.0,83.4" fill="#e5ddd0" stroke="#8e877a" stroke-width="0.8"/><polygon points="315.0,49.8 545.0,160.2 500.0,181.8 270.0,71.4" fill="#e5ddd0" stroke="#8e877a" stroke-width="0.8"/><polygon points="315.0,45.4 545.0,155.8 500.0,177.4 270.0,67.0" fill="#e5ddd0" stroke="#8e877a" stroke-width="0.8"/><polygon points="270.0,202.8 500.0,313.2 500.0,297.8 270.0,187.4" fill="#bcad96" stroke="#8e877a" stroke-width="0.8"/><polygon points="270.0,187.4 500.0,297.8 500.0,287.4 270.0,177.0" fill="#bcad96" stroke="#8e877a" stroke-width="0.8"/><polygon points="270.0,177.0 500.0,287.4 500.0,277.0 270.0,166.6" fill="#bcad96" stroke="#8e877a" stroke-width="0.8"/><polygon points="270.0,166.6 500.0,277.0 500.0,266.6 270.0,156.2" fill="#bcad96" stroke="#8e877a" stroke-width="0.8"/><polygon points="270.0,156.2 500.0,266.6 500.0,256.2 270.0,145.8" fill="#bcad96" stroke="#8e877a" stroke-width="0.8"/><polygon points="270.0,145.8 500.0,256.2 500.0,245.8 270.0,135.4" fill="#bcad96" stroke="#8e877a" stroke-width="0.8"/><polygon points="270.0,135.4 500.0,245.8 500.0,235.4 270.0,125.0" fill="#bcad96" stroke="#8e877a" stroke-width="0.8"/><polygon points="270.0,125.0 500.0,235.4 500.0,225.0 270.0,114.6" fill="#bcad96" stroke="#8e877a" stroke-width="0.8"/><polygon points="270.0,114.6 500.0,225.0 500.0,214.6 270.0,104.2" fill="#bcad96" stroke="#8e877a" stroke-width="0.8"/><polygon points="270.0,104.2 500.0,214.6 500.0,204.2 270.0,93.8" fill="#bcad96" stroke="#8e877a" stroke-width="0.8"/><polygon points="270.0,93.8 500.0,204.2 500.0,193.8 270.0,83.4" fill="#bcad96" stroke="#8e877a" stroke-width="0.8"/><polygon points="270.0,83.4 500.0,193.8 500.0,181.8 270.0,71.4" fill="#bcad96" stroke="#8e877a" stroke-width="0.8"/><polygon points="270.0,71.4 500.0,181.8 500.0,177.4 270.0,67.0" fill="#bcad96" stroke="#8e877a" stroke-width="0.8"/><polygon points="220.0,211.4 450.0,321.8 405.0,343.4 175.0,233.0" fill="#e5ddd0" stroke="#8e877a" stroke-width="0.8"/><polygon points="220.0,201.0 450.0,311.4 405.0,333.0 175.0,222.6" fill="#e5ddd0" stroke="#8e877a" stroke-width="0.8"/><polygon points="220.0,190.6 450.0,301.0 405.0,322.6 175.0,212.2" fill="#e5ddd0" stroke="#8e877a" stroke-width="0.8"/><polygon points="220.0,180.2 450.0,290.6 405.0,312.2 175.0,201.8" fill="#e5ddd0" stroke="#8e877a" stroke-width="0.8"/><polygon points="220.0,169.8 450.0,280.2 405.0,301.8 175.0,191.4" fill="#e5ddd0" stroke="#8e877a" stroke-width="0.8"/><polygon points="220.0,159.4 450.0,269.8 405.0,291.4 175.0,181.0" fill="#e5ddd0" stroke="#8e877a" stroke-width="0.8"/><polygon points="220.0,149.0 450.0,259.4 405.0,281.0 175.0,170.6" fill="#e5ddd0" stroke="#8e877a" stroke-width="0.8"/><polygon points="220.0,138.6 450.0,249.0 405.0,270.6 175.0,160.2" fill="#e5ddd0" stroke="#8e877a" stroke-width="0.8"/><polygon points="220.0,128.2 450.0,238.6 405.0,260.2 175.0,149.8" fill="#e5ddd0" stroke="#8e877a" stroke-width="0.8"/><polygon points="220.0,117.8 450.0,228.2 405.0,249.8 175.0,139.4" fill="#e5ddd0" stroke="#8e877a" stroke-width="0.8"/><polygon points="220.0,107.4 450.0,217.8 405.0,239.4 175.0,129.0" fill="#e5ddd0" stroke="#8e877a" stroke-width="0.8"/><polygon points="220.0,95.4 450.0,205.8 405.0,227.4 175.0,117.0" fill="#e5ddd0" stroke="#8e877a" stroke-width="0.8"/><polygon points="220.0,91.0 450.0,201.4 405.0,223.0 175.0,112.6" fill="#e5ddd0" stroke="#8e877a" stroke-width="0.8"/><polygon points="545.0,291.6 500.0,313.2 500.0,297.8 545.0,276.2" fill="#978e7b" stroke="#8e877a" stroke-width="0.8"/><polygon points="545.0,276.2 500.0,297.8 500.0,287.4 545.0,265.8" fill="#978e7b" stroke="#8e877a" stroke-width="0.8"/><polygon points="545.0,265.8 500.0,287.4 500.0,277.0 545.0,255.4" fill="#978e7b" stroke="#8e877a" stroke-width="0.8"/><polygon points="175.0,248.4 405.0,358.8 405.0,343.4 175.0,233.0" fill="#bcad96" stroke="#8e877a" stroke-width="0.8"/><polygon points="545.0,255.4 500.0,277.0 500.0,266.6 545.0,245.0" fill="#978e7b" stroke="#8e877a" stroke-width="0.8"/><polygon points="545.0,245.0 500.0,266.6 500.0,256.2 545.0,234.6" fill="#978e7b" stroke="#8e877a" stroke-width="0.8"/><polygon points="175.0,233.0 405.0,343.4 405.0,333.0 175.0,222.6" fill="#bcad96" stroke="#8e877a" stroke-width="0.8"/><polygon points="545.0,234.6 500.0,256.2 500.0,245.8 545.0,224.2" fill="#978e7b" stroke="#8e877a" stroke-width="0.8"/><polygon points="175.0,222.6 405.0,333.0 405.0,322.6 175.0,212.2" fill="#bcad96" stroke="#8e877a" stroke-width="0.8"/><polygon points="545.0,224.2 500.0,245.8 500.0,235.4 545.0,213.8" fill="#978e7b" stroke="#8e877a" stroke-width="0.8"/><polygon points="175.0,212.2 405.0,322.6 405.0,312.2 175.0,201.8" fill="#bcad96" stroke="#8e877a" stroke-width="0.8"/><polygon points="545.0,213.8 500.0,235.4 500.0,225.0 545.0,203.4" fill="#978e7b" stroke="#8e877a" stroke-width="0.8"/><polygon points="175.0,201.8 405.0,312.2 405.0,301.8 175.0,191.4" fill="#bcad96" stroke="#8e877a" stroke-width="0.8"/><polygon points="545.0,203.4 500.0,225.0 500.0,214.6 545.0,193.0" fill="#978e7b" stroke="#8e877a" stroke-width="0.8"/><polygon points="175.0,191.4 405.0,301.8 405.0,291.4 175.0,181.0" fill="#bcad96" stroke="#8e877a" stroke-width="0.8"/><polygon points="545.0,193.0 500.0,214.6 500.0,204.2 545.0,182.6" fill="#978e7b" stroke="#8e877a" stroke-width="0.8"/><polygon points="175.0,181.0 405.0,291.4 405.0,281.0 175.0,170.6" fill="#bcad96" stroke="#8e877a" stroke-width="0.8"/><polygon points="545.0,182.6 500.0,204.2 500.0,193.8 545.0,172.2" fill="#978e7b" stroke="#8e877a" stroke-width="0.8"/><polygon points="175.0,170.6 405.0,281.0 405.0,270.6 175.0,160.2" fill="#bcad96" stroke="#8e877a" stroke-width="0.8"/><polygon points="175.0,160.2 405.0,270.6 405.0,260.2 175.0,149.8" fill="#bcad96" stroke="#8e877a" stroke-width="0.8"/><polygon points="545.0,172.2 500.0,193.8 500.0,181.8 545.0,160.2" fill="#978e7b" stroke="#8e877a" stroke-width="0.8"/><polygon points="545.0,160.2 500.0,181.8 500.0,177.4 545.0,155.8" fill="#978e7b" stroke="#8e877a" stroke-width="0.8"/><polygon points="175.0,149.8 405.0,260.2 405.0,249.8 175.0,139.4" fill="#bcad96" stroke="#8e877a" stroke-width="0.8"/><polygon points="175.0,139.4 405.0,249.8 405.0,239.4 175.0,129.0" fill="#bcad96" stroke="#8e877a" stroke-width="0.8"/><polygon points="175.0,129.0 405.0,239.4 405.0,227.4 175.0,117.0" fill="#bcad96" stroke="#8e877a" stroke-width="0.8"/><polygon points="175.0,117.0 405.0,227.4 405.0,223.0 175.0,112.6" fill="#bcad96" stroke="#8e877a" stroke-width="0.8"/><polygon points="440.0,269.0 500.0,297.8 450.0,321.8 390.0,293.0" fill="#e5ddd0" stroke="#8e877a" stroke-width="0.8"/><polygon points="440.0,258.6 500.0,287.4 450.0,311.4 390.0,282.6" fill="#e5ddd0" stroke="#8e877a" stroke-width="0.8"/><polygon points="440.0,248.2 500.0,277.0 450.0,301.0 390.0,272.2" fill="#e5ddd0" stroke="#8e877a" stroke-width="0.8"/><polygon points="440.0,237.8 500.0,266.6 450.0,290.6 390.0,261.8" fill="#e5ddd0" stroke="#8e877a" stroke-width="0.8"/><polygon points="440.0,227.4 500.0,256.2 450.0,280.2 390.0,251.4" fill="#e5ddd0" stroke="#8e877a" stroke-width="0.8"/><polygon points="440.0,217.0 500.0,245.8 450.0,269.8 390.0,241.0" fill="#e5ddd0" stroke="#8e877a" stroke-width="0.8"/><polygon points="440.0,206.6 500.0,235.4 450.0,259.4 390.0,230.6" fill="#e5ddd0" stroke="#8e877a" stroke-width="0.8"/><polygon points="440.0,196.2 500.0,225.0 450.0,249.0 390.0,220.2" fill="#e5ddd0" stroke="#8e877a" stroke-width="0.8"/><polygon points="440.0,185.8 500.0,214.6 450.0,238.6 390.0,209.8" fill="#e5ddd0" stroke="#8e877a" stroke-width="0.8"/><polygon points="440.0,175.4 500.0,204.2 450.0,228.2 390.0,199.4" fill="#e5ddd0" stroke="#8e877a" stroke-width="0.8"/><polygon points="440.0,165.0 500.0,193.8 450.0,217.8 390.0,189.0" fill="#e5ddd0" stroke="#8e877a" stroke-width="0.8"/><polygon points="440.0,153.0 500.0,181.8 450.0,205.8 390.0,177.0" fill="#e5ddd0" stroke="#8e877a" stroke-width="0.8"/><polygon points="440.0,148.6 500.0,177.4 450.0,201.4 390.0,172.6" fill="#e5ddd0" stroke="#8e877a" stroke-width="0.8"/><polygon points="390.0,308.4 450.0,337.2 450.0,321.8 390.0,293.0" fill="#bcad96" stroke="#8e877a" stroke-width="0.8"/><polygon points="390.0,293.0 450.0,321.8 450.0,311.4 390.0,282.6" fill="#bcad96" stroke="#8e877a" stroke-width="0.8"/><polygon points="390.0,282.6 450.0,311.4 450.0,301.0 390.0,272.2" fill="#bcad96" stroke="#8e877a" stroke-width="0.8"/><polygon points="390.0,272.2 450.0,301.0 450.0,290.6 390.0,261.8" fill="#bcad96" stroke="#8e877a" stroke-width="0.8"/><polygon points="390.0,261.8 450.0,290.6 450.0,280.2 390.0,251.4" fill="#bcad96" stroke="#8e877a" stroke-width="0.8"/><polygon points="390.0,251.4 450.0,280.2 450.0,269.8 390.0,241.0" fill="#bcad96" stroke="#8e877a" stroke-width="0.8"/><polygon points="500.0,313.2 450.0,337.2 450.0,321.8 500.0,297.8" fill="#978e7b" stroke="#8e877a" stroke-width="0.8"/><polygon points="390.0,241.0 450.0,269.8 450.0,259.4 390.0,230.6" fill="#bcad96" stroke="#8e877a" stroke-width="0.8"/><polygon points="390.0,230.6 450.0,259.4 450.0,249.0 390.0,220.2" fill="#bcad96" stroke="#8e877a" stroke-width="0.8"/><polygon points="500.0,297.8 450.0,321.8 450.0,311.4 500.0,287.4" fill="#978e7b" stroke="#8e877a" stroke-width="0.8"/><polygon points="390.0,220.2 450.0,249.0 450.0,238.6 390.0,209.8" fill="#bcad96" stroke="#8e877a" stroke-width="0.8"/><polygon points="500.0,287.4 450.0,311.4 450.0,301.0 500.0,277.0" fill="#978e7b" stroke="#8e877a" stroke-width="0.8"/><polygon points="390.0,209.8 450.0,238.6 450.0,228.2 390.0,199.4" fill="#bcad96" stroke="#8e877a" stroke-width="0.8"/><polygon points="500.0,277.0 450.0,301.0 450.0,290.6 500.0,266.6" fill="#978e7b" stroke="#8e877a" stroke-width="0.8"/><polygon points="390.0,199.4 450.0,228.2 450.0,217.8 390.0,189.0" fill="#bcad96" stroke="#8e877a" stroke-width="0.8"/><polygon points="500.0,266.6 450.0,290.6 450.0,280.2 500.0,256.2" fill="#978e7b" stroke="#8e877a" stroke-width="0.8"/><polygon points="390.0,189.0 450.0,217.8 450.0,205.8 390.0,177.0" fill="#bcad96" stroke="#8e877a" stroke-width="0.8"/><polygon points="500.0,256.2 450.0,280.2 450.0,269.8 500.0,245.8" fill="#978e7b" stroke="#8e877a" stroke-width="0.8"/><polygon points="390.0,177.0 450.0,205.8 450.0,201.4 390.0,172.6" fill="#bcad96" stroke="#8e877a" stroke-width="0.8"/><polygon points="500.0,245.8 450.0,269.8 450.0,259.4 500.0,235.4" fill="#978e7b" stroke="#8e877a" stroke-width="0.8"/><polygon points="500.0,235.4 450.0,259.4 450.0,249.0 500.0,225.0" fill="#978e7b" stroke="#8e877a" stroke-width="0.8"/><polygon points="500.0,225.0 450.0,249.0 450.0,238.6 500.0,214.6" fill="#978e7b" stroke="#8e877a" stroke-width="0.8"/><polygon points="500.0,214.6 450.0,238.6 450.0,228.2 500.0,204.2" fill="#978e7b" stroke="#8e877a" stroke-width="0.8"/><polygon points="500.0,204.2 450.0,228.2 450.0,217.8 500.0,193.8" fill="#978e7b" stroke="#8e877a" stroke-width="0.8"/><polygon points="500.0,193.8 450.0,217.8 450.0,205.8 500.0,181.8" fill="#978e7b" stroke="#8e877a" stroke-width="0.8"/><polygon points="500.0,181.8 450.0,205.8 450.0,201.4 500.0,177.4" fill="#978e7b" stroke="#8e877a" stroke-width="0.8"/><polygon points="450.0,337.2 405.0,358.8 405.0,343.4 450.0,321.8" fill="#978e7b" stroke="#8e877a" stroke-width="0.8"/><polygon points="450.0,321.8 405.0,343.4 405.0,333.0 450.0,311.4" fill="#978e7b" stroke="#8e877a" stroke-width="0.8"/><polygon points="450.0,311.4 405.0,333.0 405.0,322.6 450.0,301.0" fill="#978e7b" stroke="#8e877a" stroke-width="0.8"/><polygon points="450.0,301.0 405.0,322.6 405.0,312.2 450.0,290.6" fill="#978e7b" stroke="#8e877a" stroke-width="0.8"/><polygon points="450.0,290.6 405.0,312.2 405.0,301.8 450.0,280.2" fill="#978e7b" stroke="#8e877a" stroke-width="0.8"/><polygon points="450.0,280.2 405.0,301.8 405.0,291.4 450.0,269.8" fill="#978e7b" stroke="#8e877a" stroke-width="0.8"/><polygon points="450.0,269.8 405.0,291.4 405.0,281.0 450.0,259.4" fill="#978e7b" stroke="#8e877a" stroke-width="0.8"/><polygon points="450.0,259.4 405.0,281.0 405.0,270.6 450.0,249.0" fill="#978e7b" stroke="#8e877a" stroke-width="0.8"/><polygon points="450.0,249.0 405.0,270.6 405.0,260.2 450.0,238.6" fill="#978e7b" stroke="#8e877a" stroke-width="0.8"/><polygon points="450.0,238.6 405.0,260.2 405.0,249.8 450.0,228.2" fill="#978e7b" stroke="#8e877a" stroke-width="0.8"/><polygon points="450.0,228.2 405.0,249.8 405.0,239.4 450.0,217.8" fill="#978e7b" stroke="#8e877a" stroke-width="0.8"/><polygon points="450.0,217.8 405.0,239.4 405.0,227.4 450.0,205.8" fill="#978e7b" stroke="#8e877a" stroke-width="0.8"/><polygon points="450.0,205.8 405.0,227.4 405.0,223.0 450.0,201.4" fill="#978e7b" stroke="#8e877a" stroke-width="0.8"/><path d="M100 255.6v-19" stroke="#62694f" stroke-width="2"/><ellipse cx="100" cy="232.6" rx="9" ry="10.35" fill="#89977d"/><path d="M240 327.6v-19" stroke="#62694f" stroke-width="2"/><ellipse cx="240" cy="304.6" rx="11" ry="12.649999999999999" fill="#89977d"/><path d="M390 399.6v-19" stroke="#62694f" stroke-width="2"/><ellipse cx="390" cy="376.6" rx="10" ry="11.5" fill="#89977d"/><path d="M480 375.6v-19" stroke="#62694f" stroke-width="2"/><ellipse cx="480" cy="352.6" rx="9" ry="10.35" fill="#89977d"/><g class="dimensions" font-family="Arial,sans-serif" font-size="12" fill="#625d55"><text x="28" y="472">72 × 50 m site</text><text x="692" y="472" text-anchor="end">Elevated axonometric study</text></g></svg>